<svg xmlns="http://www.w3.org/2000/svg" width="150" height="150"><path d="M0 0h150v150H0z" style="fill:#90caf9;fill-opacity:1;stroke:none"/><path d="M20 150H0V0h150v150H20m4-12 3 1h101l1-1 2-2 7-6 5-6 1-2V21l-5-4-10-10-1-1H26l-1 1-4 4-10 10-1 2v101l4 3Zm0 0" style="stroke:none;fill-rule:nonzero;fill:#1e1e1e;fill-opacity:1"/><path d="M98 97H55V49h44v48h-1M76 85h12V61H65v24Zm0 0" style="stroke:none;fill-rule:nonzero;fill:#1e1e1e;fill-opacity:1"/><path d="M33 47V28h36v10H52l-1 1-4 4-3 2v19H33Zm86 17h-9V45l-5-4-2-3H85V28h36v36Zm-86 44V81h11v20l6 6 3 1h16v10H33Zm77-20v-6h11v36H85v-10h16l2-1 5-5 1-1 1-3Zm0 0" style="stroke:none;fill-rule:nonzero;fill:#1e1e1e;fill-opacity:1"/></svg>